<?xml version="1.0" encoding="UTF-8" standalone="no"?>
<!DOCTYPE svg PUBLIC "-//W3C//DTD SVG 1.1//EN"
 "http://www.w3.org/Graphics/SVG/1.1/DTD/svg11.dtd">
<!-- Generated by graphviz version 2.49.3 (20211023.0002)
 -->
<!-- Pages: 1 -->
<svg width="509pt" height="117pt"
 viewBox="0.00 0.00 509.00 117.00" xmlns="http://www.w3.org/2000/svg" xmlns:xlink="http://www.w3.org/1999/xlink">
<g id="graph0" class="graph" transform="scale(1 1) rotate(0) translate(4 113)">
<polygon fill="white" stroke="transparent" points="-4,4 -4,-113 505,-113 505,4 -4,4"/>
<text text-anchor="middle" x="43.5" y="-93.8" font-family="Times,serif" font-size="14.00">状態遷移図</text>
<g id="node1" class="node">
<title></title>
<ellipse fill="black" stroke="black" cx="7" cy="-43" rx="7" ry="7"/>
</g>
<!-- 状態名1 -->
<g id="node2" class="node">
<title>状態名1</title>
<ellipse fill="none" stroke="black" cx="122" cy="-43" rx="43" ry="43"/>
<text text-anchor="middle" x="122" y="-39.3" font-family="Times,serif" font-size="14.00">状態名1</text>
</g>
<!-- &#45;&gt;状態名1 -->
<g id="edge1" class="edge">
<title>&#45;&gt;状態名1</title>
<path fill="none" stroke="black" d="M14.08,-43C24.56,-43 47.03,-43 68.67,-43"/>
<polygon fill="black" stroke="black" points="68.84,-46.5 78.84,-43 68.84,-39.5 68.84,-46.5"/>
<text text-anchor="middle" x="46.5" y="-46.8" font-family="Times,serif" font-size="14.00">開始</text>
</g>
<!-- 状態名2 -->
<g id="node3" class="node">
<title>状態名2</title>
<ellipse fill="none" stroke="black" cx="458" cy="-43" rx="43" ry="43"/>
<text text-anchor="middle" x="458" y="-39.3" font-family="Times,serif" font-size="14.00">状態名2</text>
</g>
<!-- 状態名1&#45;&gt;状態名2 -->
<g id="edge2" class="edge">
<title>状態名1&#45;&gt;状態名2</title>
<path fill="none" stroke="black" d="M165.3,-43C226.2,-43 338.51,-43 404.59,-43"/>
<polygon fill="black" stroke="black" points="404.78,-46.5 414.78,-43 404.78,-39.5 404.78,-46.5"/>
<text text-anchor="middle" x="290" y="-46.8" font-family="Times,serif" font-size="14.00">イベント(入力)／アクション(出力)</text>
</g>
</g>
</svg>
