<?xml version="1.0" encoding="UTF-8" standalone="no"?>
<!DOCTYPE svg PUBLIC "-//W3C//DTD SVG 1.1//EN"
 "http://www.w3.org/Graphics/SVG/1.1/DTD/svg11.dtd">
<!-- Generated by graphviz version 2.49.3 (20211023.0002)
 -->
<!-- Pages: 1 -->
<svg width="873pt" height="237pt"
 viewBox="0.00 0.00 873.00 237.00" xmlns="http://www.w3.org/2000/svg" xmlns:xlink="http://www.w3.org/1999/xlink">
<g id="graph0" class="graph" transform="scale(1 1) rotate(0) translate(4 233)">
<polygon fill="white" stroke="transparent" points="-4,4 -4,-233 869,-233 869,4 -4,4"/>
<text text-anchor="middle" x="78.5" y="-213.8" font-family="Times,serif" font-size="14.00">整数判定の状態遷移図</text>
<g id="node1" class="node">
<title></title>
<ellipse fill="black" stroke="black" cx="7" cy="-129" rx="7" ry="7"/>
</g>
<!-- S0 -->
<g id="node4" class="node">
<title>S0</title>
<ellipse fill="none" stroke="black" cx="94" cy="-129" rx="43" ry="43"/>
<text text-anchor="middle" x="94" y="-125.3" font-family="Times,serif" font-size="14.00">S0</text>
</g>
<!-- &#45;&gt;S0 -->
<g id="edge1" class="edge">
<title>&#45;&gt;S0</title>
<path fill="none" stroke="black" d="M14.11,-129C20.17,-129 30.1,-129 40.89,-129"/>
<polygon fill="black" stroke="black" points="40.97,-132.5 50.97,-129 40.97,-125.5 40.97,-132.5"/>
</g>
<!-- S3(OK) -->
<g id="node2" class="node">
<title>S3(OK)</title>
<ellipse fill="none" stroke="black" cx="818" cy="-47" rx="43" ry="43"/>
<ellipse fill="none" stroke="black" cx="818" cy="-47" rx="47" ry="47"/>
<text text-anchor="middle" x="818" y="-43.3" font-family="Times,serif" font-size="14.00">S3(OK)</text>
</g>
<!-- S4(NG) -->
<g id="node3" class="node">
<title>S4(NG)</title>
<ellipse fill="none" stroke="black" cx="818" cy="-159" rx="43" ry="43"/>
<ellipse fill="none" stroke="black" cx="818" cy="-159" rx="47" ry="47"/>
<text text-anchor="middle" x="818" y="-155.3" font-family="Times,serif" font-size="14.00">S4(NG)</text>
</g>
<!-- S0&#45;&gt;S4(NG) -->
<g id="edge7" class="edge">
<title>S0&#45;&gt;S4(NG)</title>
<path fill="none" stroke="black" d="M134.64,-143.23C173.2,-156.22 233.75,-174.37 288,-181 459.44,-201.95 664.21,-180.29 761.01,-167.29"/>
<polygon fill="black" stroke="black" points="761.72,-170.72 771.16,-165.9 760.78,-163.79 761.72,-170.72"/>
<text text-anchor="middle" x="496.5" y="-192.8" font-family="Times,serif" font-size="14.00">その他／－</text>
</g>
<!-- S1 -->
<g id="node5" class="node">
<title>S1</title>
<ellipse fill="none" stroke="black" cx="351.5" cy="-129" rx="43" ry="43"/>
<text text-anchor="middle" x="351.5" y="-125.3" font-family="Times,serif" font-size="14.00">S1</text>
</g>
<!-- S0&#45;&gt;S1 -->
<g id="edge2" class="edge">
<title>S0&#45;&gt;S1</title>
<path fill="none" stroke="black" d="M137.19,-129C181.29,-129 250.58,-129 298.15,-129"/>
<polygon fill="black" stroke="black" points="298.25,-132.5 308.25,-129 298.25,-125.5 298.25,-132.5"/>
<text text-anchor="middle" x="212.5" y="-132.8" font-family="Times,serif" font-size="14.00">＋|－／次の文字へ</text>
</g>
<!-- S2 -->
<g id="node6" class="node">
<title>S2</title>
<ellipse fill="none" stroke="black" cx="621" cy="-47" rx="43" ry="43"/>
<text text-anchor="middle" x="621" y="-43.3" font-family="Times,serif" font-size="14.00">S2</text>
</g>
<!-- S0&#45;&gt;S2 -->
<g id="edge3" class="edge">
<title>S0&#45;&gt;S2</title>
<path fill="none" stroke="black" d="M133.64,-111.86C171.96,-95.76 232.79,-72.6 288,-62 385.49,-43.29 501.89,-42.95 567.75,-44.74"/>
<polygon fill="black" stroke="black" points="567.78,-48.25 577.88,-45.05 567.99,-41.25 567.78,-48.25"/>
<text text-anchor="middle" x="351.5" y="-65.8" font-family="Times,serif" font-size="14.00">０～９／次の文字へ</text>
</g>
<!-- S1&#45;&gt;S4(NG) -->
<g id="edge8" class="edge">
<title>S1&#45;&gt;S4(NG)</title>
<path fill="none" stroke="black" d="M394.54,-131.72C478.38,-137.13 666.41,-149.27 760.76,-155.37"/>
<polygon fill="black" stroke="black" points="760.76,-158.87 770.96,-156.03 761.21,-151.89 760.76,-158.87"/>
<text text-anchor="middle" x="621" y="-151.8" font-family="Times,serif" font-size="14.00">その他／－</text>
</g>
<!-- S1&#45;&gt;S2 -->
<g id="edge4" class="edge">
<title>S1&#45;&gt;S2</title>
<path fill="none" stroke="black" d="M392.84,-116.63C440.18,-102.12 518.71,-78.05 569.91,-62.35"/>
<polygon fill="black" stroke="black" points="571.24,-65.61 579.77,-59.33 569.19,-58.92 571.24,-65.61"/>
<text text-anchor="middle" x="496.5" y="-105.8" font-family="Times,serif" font-size="14.00">０～９／次の文字へ</text>
</g>
<!-- S2&#45;&gt;S3(OK) -->
<g id="edge6" class="edge">
<title>S2&#45;&gt;S3(OK)</title>
<path fill="none" stroke="black" d="M664.31,-47C692.49,-47 729.84,-47 760.54,-47"/>
<polygon fill="black" stroke="black" points="760.68,-50.5 770.68,-47 760.68,-43.5 760.68,-50.5"/>
<text text-anchor="middle" x="717.5" y="-50.8" font-family="Times,serif" font-size="14.00">EOS／－</text>
</g>
<!-- S2&#45;&gt;S4(NG) -->
<g id="edge9" class="edge">
<title>S2&#45;&gt;S4(NG)</title>
<path fill="none" stroke="black" d="M658.68,-68.07C689.57,-85.81 734.02,-111.34 767.96,-130.83"/>
<polygon fill="black" stroke="black" points="766.38,-133.96 776.79,-135.9 769.86,-127.89 766.38,-133.96"/>
<text text-anchor="middle" x="717.5" y="-122.8" font-family="Times,serif" font-size="14.00">その他／－</text>
</g>
<!-- S2&#45;&gt;S2 -->
<g id="edge5" class="edge">
<title>S2&#45;&gt;S2</title>
<path fill="none" stroke="black" d="M603.02,-86.31C603.38,-98.46 609.38,-108 621,-108 629.17,-108 634.56,-103.28 637.17,-96.26"/>
<polygon fill="black" stroke="black" points="640.63,-96.77 638.98,-86.31 633.75,-95.52 640.63,-96.77"/>
<text text-anchor="middle" x="621" y="-111.8" font-family="Times,serif" font-size="14.00">０～９／次の文字へ</text>
</g>
</g>
</svg>
