<?xml version="1.0" encoding="UTF-8" standalone="no"?>
<!DOCTYPE svg PUBLIC "-//W3C//DTD SVG 1.1//EN"
 "http://www.w3.org/Graphics/SVG/1.1/DTD/svg11.dtd">
<!-- Generated by graphviz version 2.49.3 (20211023.0002)
 -->
<!-- Pages: 1 -->
<svg width="1003pt" height="177pt"
 viewBox="0.00 0.00 1003.00 177.00" xmlns="http://www.w3.org/2000/svg" xmlns:xlink="http://www.w3.org/1999/xlink">
<g id="graph0" class="graph" transform="scale(1 1) rotate(0) translate(4 173)">
<polygon fill="white" stroke="transparent" points="-4,4 -4,-173 999,-173 999,4 -4,4"/>
<text text-anchor="middle" x="106.5" y="-153.8" font-family="Times,serif" font-size="14.00">ストップウォッチの状態遷移図</text>
<g id="node1" class="node">
<title></title>
<ellipse fill="black" stroke="black" cx="7" cy="-43" rx="7" ry="7"/>
</g>
<!-- 待機中 -->
<g id="node2" class="node">
<title>待機中</title>
<ellipse fill="none" stroke="black" cx="94" cy="-43" rx="43" ry="43"/>
<text text-anchor="middle" x="94" y="-39.3" font-family="Times,serif" font-size="14.00">待機中</text>
</g>
<!-- &#45;&gt;待機中 -->
<g id="edge1" class="edge">
<title>&#45;&gt;待機中</title>
<path fill="none" stroke="black" d="M14.11,-43C20.17,-43 30.1,-43 40.89,-43"/>
<polygon fill="black" stroke="black" points="40.97,-46.5 50.97,-43 40.97,-39.5 40.97,-46.5"/>
</g>
<!-- 計測中 -->
<g id="node3" class="node">
<title>計測中</title>
<ellipse fill="none" stroke="black" cx="523" cy="-103" rx="43" ry="43"/>
<text text-anchor="middle" x="523" y="-99.3" font-family="Times,serif" font-size="14.00">計測中</text>
</g>
<!-- 待機中&#45;&gt;計測中 -->
<g id="edge2" class="edge">
<title>待機中&#45;&gt;計測中</title>
<path fill="none" stroke="black" d="M136.72,-48.86C215.16,-59.88 384.43,-83.67 470.09,-95.71"/>
<polygon fill="black" stroke="black" points="469.72,-99.19 480.11,-97.11 470.69,-92.26 469.72,-99.19"/>
<text text-anchor="middle" x="260" y="-83.8" font-family="Times,serif" font-size="14.00">スタートボタンを押す／計測開始</text>
</g>
<!-- 一時停止 -->
<g id="node4" class="node">
<title>一時停止</title>
<ellipse fill="none" stroke="black" cx="952" cy="-65" rx="43" ry="43"/>
<text text-anchor="middle" x="952" y="-61.3" font-family="Times,serif" font-size="14.00">一時停止</text>
</g>
<!-- 計測中&#45;&gt;一時停止 -->
<g id="edge3" class="edge">
<title>計測中&#45;&gt;一時停止</title>
<path fill="none" stroke="black" d="M566.13,-103.21C634.68,-102.94 774.43,-99.84 891,-81 894.19,-80.48 897.46,-79.87 900.74,-79.19"/>
<polygon fill="black" stroke="black" points="901.59,-82.58 910.57,-76.96 900.05,-75.76 901.59,-82.58"/>
<text text-anchor="middle" x="786" y="-103.8" font-family="Times,serif" font-size="14.00">スタートボタンを押す／結果表示</text>
</g>
<!-- 一時停止&#45;&gt;待機中 -->
<g id="edge5" class="edge">
<title>一時停止&#45;&gt;待機中</title>
<path fill="none" stroke="black" d="M909.8,-56.07C903.52,-54.91 897.1,-53.83 891,-53 790.32,-39.23 764.54,-39.78 663,-36 473.11,-28.93 247.3,-36.47 147.21,-40.63"/>
<polygon fill="black" stroke="black" points="146.9,-37.14 137.06,-41.06 147.2,-44.13 146.9,-37.14"/>
<text text-anchor="middle" x="523" y="-39.8" font-family="Times,serif" font-size="14.00">リセットボタンを押す／計測時間をリセット</text>
</g>
<!-- 一時停止&#45;&gt;計測中 -->
<g id="edge4" class="edge">
<title>一時停止&#45;&gt;計測中</title>
<path fill="none" stroke="black" d="M909.05,-62.63C902.99,-62.37 896.84,-62.15 891,-62 797.7,-59.67 773.57,-50.11 681,-62 644.44,-66.69 604.24,-77.3 573.67,-86.55"/>
<polygon fill="black" stroke="black" points="572.63,-83.21 564.1,-89.49 574.69,-89.9 572.63,-83.21"/>
<text text-anchor="middle" x="786" y="-65.8" font-family="Times,serif" font-size="14.00">スタートボタンを押す／計測開始</text>
</g>
</g>
</svg>
